<svg id="abisal_idea" xmlns="http://www.w3.org/2000/svg" viewBox="0 0 1707.42 1263.41"><defs><style>.cls-1{fill:#112c33;stroke:#112c33;stroke-linejoin:round;stroke-width:8px;}</style></defs><g id="Layer_10" data-name="Layer 10"><path class="cls-1" d="M1894,659.68c-131.69,23.5-250.78,88.11-344,181.13v0A683.75,683.75,0,0,0,1479,923.91a174,174,0,0,0-40.77-40.33,11.3,11.3,0,0,1,.11-1.74l-10.1-8.12-71.37-57.41-117-94.18-17.63-14.19h0l-49.84-40.17-1.5-1.14-8.79-7.08a43.1,43.1,0,0,1,19.06-24.37,64.87,64.87,0,0,1-28.64-41.6v0a64.8,64.8,0,0,1,10.07-49.77,65.17,65.17,0,0,1-30.77-64.46,71.45,71.45,0,0,1,2-9.5,169.71,169.71,0,0,1-6-25,173.33,173.33,0,0,1,62.42-162.46C995.37,283.88,822.92,410.82,762.73,595c3-.63,5.94-1.19,8.91-1.76-37.79,15.15-74.06,36.08-108.08,62a259.77,259.77,0,0,0-82.31-119.22c-49.71-40.57-112.27-60.25-171.7-54-64.88,6.83-125.35,43.75-165.93,101.3a260.83,260.83,0,0,0-40.23,211.79l19.68-4.77c-16.49,7.44-28.53,30.86-28.53,58.61,0,33.73,17.79,61.08,39.74,61.08S274,882.72,274,849s-17.79-61.09-39.73-61.09c-.39,0-.78,0-1.16.05L241,786a222.14,222.14,0,0,1,34.24-180.36c34.14-48.42,84.56-79.44,138.33-85.09,97-10.2,191.07,61.91,217.5,161.61-108.4,97.3-188.83,248-213.25,424.5a781,781,0,0,0-6.66,143.22q-24.82-1.25-49.79-4.73a588.25,588.25,0,0,1-96.18-21.6c48.3,72.17,105.67,134.37,170.49,183.8,16,12.22,131.84,95.34,288.27,121.91,308.83,52.45,556.27-154,592.91-185.52l158.53-110.06c65,53.92,146.4,87.52,235.83,91.17a385.86,385.86,0,0,0,54.21-1.55,165.4,165.4,0,0,1-32.37-105.87c2.64-64.79,41.43-119.16,95.14-142.72a141.74,141.74,0,0,1,25.27-8.52c-32.42-17.33-54-53.3-52.32-93.91,1.9-46.66,33.83-84.7,75.49-94.52-.77-1-1.51-2-2.24-3A167,167,0,0,1,1894,659.68Z" transform="translate(-190.54 -278.37)"/></g></svg>