<?xml version="1.0" encoding="UTF-8" standalone="no"?>
<!-- Created with Inkscape (http://www.inkscape.org/) -->

<svg
   width="64"
   height="64"
   viewBox="0 0 16.933333 16.933333"
   version="1.1"
   id="svg1463"
   inkscape:version="1.1 (c68e22c387, 2021-05-23)"
   sodipodi:docname="logo_desing_Julio_white.svg"
   inkscape:export-filename="D:\Windows Data\Documents\Works\logo_desing_Julio_white.png"
   inkscape:export-xdpi="150"
   inkscape:export-ydpi="150"
   xmlns:inkscape="http://www.inkscape.org/namespaces/inkscape"
   xmlns:sodipodi="http://sodipodi.sourceforge.net/DTD/sodipodi-0.dtd"
   xmlns="http://www.w3.org/2000/svg"
   xmlns:svg="http://www.w3.org/2000/svg">
  <sodipodi:namedview
     id="namedview1465"
     pagecolor="#ffffff"
     bordercolor="#666666"
     borderopacity="1.0"
     inkscape:pageshadow="2"
     inkscape:pageopacity="0.0"
     inkscape:pagecheckerboard="true"
     inkscape:document-units="mm"
     showgrid="false"
     inkscape:zoom="5.2410025"
     inkscape:cx="30.051503"
     inkscape:cy="30.814715"
     inkscape:window-width="1366"
     inkscape:window-height="705"
     inkscape:window-x="-8"
     inkscape:window-y="-8"
     inkscape:window-maximized="1"
     inkscape:current-layer="layer1"
     height="296mm"
     units="px" />
  <defs
     id="defs1460">
    <style
       id="style1524">.cls-1{fill:#112c33;stroke:#112c33;stroke-linejoin:round;stroke-width:8px;}</style>
  </defs>
  <g
     inkscape:label="Capa 1"
     inkscape:groupmode="layer"
     id="layer1">
    <path
       class="cls-1"
       d="m 16.246837,6.1739658 c -1.205759,0.2151673 -2.296154,0.8067398 -3.149682,1.6584358 v 0 a 6.2604509,6.2604509 0 0 0 -0.650079,0.7608677 1.5931531,1.5931531 0 0 0 -0.373292,-0.3692633 0.10346339,0.10346339 0 0 1 10e-4,-0.015931 L 11.982314,8.1337278 11.328847,7.6080792 10.257587,6.7457618 10.096166,6.6158376 v 0 L 9.6398298,6.2480384 9.6260956,6.237601 9.545612,6.1727759 A 0.39462587,0.39462587 0 0 1 9.7201272,5.9496423 0.59395313,0.59395313 0 0 1 9.457898,5.5687505 v 0 A 0.59331222,0.59331222 0 0 1 9.5500995,5.1130542 0.59669996,0.59669996 0 0 1 9.2683674,4.5228545 0.65419996,0.65419996 0 0 1 9.2866795,4.4358722 1.5538738,1.5538738 0 0 1 9.2317432,4.2069716 1.5870186,1.5870186 0 0 1 9.8032634,2.719479 c -1.784329,0.013643 -3.3632899,1.1759115 -3.9143927,2.8622737 0.027469,-0.00576 0.054386,-0.010896 0.08158,-0.016115 C 5.624444,5.7043525 5.2923538,5.8959888 4.980865,6.1333135 A 2.3784677,2.3784677 0 0 0 4.2272292,5.041729 C 3.7720821,4.6702677 3.1992799,4.490076 2.6551351,4.5473013 2.0610914,4.6098379 1.5074238,4.9478791 1.1358719,5.4748101 A 2.3881732,2.3881732 0 0 0 0.76752332,7.4139705 l 0.18019062,-0.043675 c -0.15098291,0.068122 -0.26122119,0.2825561 -0.26122119,0.5366367 0,0.3088335 0.16288559,0.5592517 0.36386095,0.5592517 0.2009763,0 0.3636791,-0.2500516 0.3636791,-0.5587939 0,-0.3087421 -0.1628866,-0.5593431 -0.3637706,-0.5593431 -0.00358,0 -0.00714,0 -0.010621,5.071e-4 L 1.1118832,7.330605 A 2.0339255,2.0339255 0 0 1 1.4253862,5.6792203 C 1.7379733,5.2358836 2.1996214,4.9518635 2.6919424,4.900132 3.5800803,4.80674 4.4413893,5.4669824 4.6833844,6.3798412 3.6908678,7.2707256 2.954447,8.6505429 2.7308555,10.266586 a 7.150877,7.150877 0 0 0 -0.060979,1.311328 q -0.2272526,-0.01144 -0.4558801,-0.04331 a 5.3860481,5.3860481 0 0 1 -0.8806287,-0.19777 c 0.4422374,0.660792 0.9675197,1.2303 1.5610151,1.682883 0.1464973,0.111886 1.2071347,0.872939 2.6394161,1.116213 2.8276643,0.480236 5.0932371,-1.410031 5.4287141,-1.698631 l 1.451509,-1.007715 c 0.595144,0.493696 1.340447,0.801338 2.159272,0.834758 a 3.5329543,3.5329543 0 0 0 0.49635,-0.01419 1.5144111,1.5144111 0 0 1 -0.296382,-0.96935 c 0.02417,-0.593222 0.379335,-1.091035 0.871107,-1.3067524 a 1.2977789,1.2977789 0 0 1 0.231373,-0.07801 C 15.578903,9.7373648 15.381316,9.408022 15.396698,9.0361955 c 0.0174,-0.4272217 0.309749,-0.775518 0.691191,-0.8654305 -0.0071,-0.00916 -0.01382,-0.018312 -0.02051,-0.027469 a 1.5290608,1.5290608 0 0 1 0.179462,-1.9692834 z"
       id="path1528-9"
       style="fill:#ffffff;fill-opacity:1;stroke:#ffffff;stroke-width:0.150628;stroke-linejoin:round;stroke-miterlimit:4;stroke-dasharray:none;stroke-opacity:1" />
  </g>
</svg>
